<svg xmlns="http://www.w3.org/2000/svg" width="153" height="65" fill="none" viewBox="0 0 153 65">
  <mask id="a" width="57" height="65" x="0" y="0" maskUnits="userSpaceOnUse" style="mask-type:luminance">
    <path fill="#fff" d="M.516 0h56.302v64.345H.516V0Z"/>
  </mask>
  <g mask="url(#a)">
    <path fill="#007965" d="M42.74 4.963c-6.88-.136-12.243-3.71-14.076-4.96-1.83 1.25-7.193 4.824-14.073 4.96C7.041 5.14 2.304 3.31.516 2.1v20.02h3.039V6.66A34.863 34.863 0 0 0 13.608 8h1.07c4.692-.135 9.474-1.653 13.986-4.424 4.514 2.771 9.293 4.289 13.985 4.38h1.073c3.396.044 6.79-.404 10.054-1.341v15.46h3.035V2.102C55.026 3.31 50.29 5.14 42.74 4.963Zm3.573 42.893c-4.737 6.526-10.992 11.217-17.65 13.36-6.702-2.098-12.912-6.834-17.645-13.315a39.987 39.987 0 0 1-3.442-5.63H4.18c4.737 10.145 13.718 19.035 24.484 22.074 8.043-2.278 15.058-7.817 20.108-14.7a44.315 44.315 0 0 0 4.376-7.418h-3.349a45.395 45.395 0 0 1-3.486 5.63Z"/>
  </g>
  <mask id="b" width="42" height="31" x="16" y="9" maskUnits="userSpaceOnUse" style="mask-type:luminance">
    <path fill="#fff" d="M16.776 9.706h40.422v30.12H16.776V9.706Z"/>
  </mask>
  <g mask="url(#b)">
    <path fill="#00AF91" d="M47.212 18.977c-6.87 0-9.854 5.955-9.854 5.955 4.862 5.314 12.413 3.061 15.854 3.28-.458-1.47-1.962-3.445-6.554-4.482 0 0 7.118-.345 8.371 5.855.658 3.242-1.34 7.054-5.568 7.054-4.27 0-9.867-5.888-11.662-8.153a26.973 26.973 0 0 0-.902-1.08c-1.33-1.527-2.027-3.48-2.056-5.503a5.455 5.455 0 0 0-1.495-3.68l-8.024-8.507L23.946 11l7.721 8.185-.909.848-7.72-8.185-1.29 1.205 7.718 8.185-.909.847-7.717-8.184-1.293 1.205 7.718 8.185-.905.847-7.721-8.185-1.376 1.286 8.024 8.507a5.522 5.522 0 0 0 3.506 1.711c2.307.216 4.466 1.228 5.98 2.974.074.084.149.168.216.249 2.817 3.283 7.895 8.89 13.554 8.89 5.726 0 8.73-4.553 8.51-9.2-.316-6.69-4.801-11.394-9.841-11.394Z"/>
  </g>
  <mask id="c" width="38" height="29" x="0" y="19" maskUnits="userSpaceOnUse" style="mask-type:luminance">
    <path fill="#fff" d="M.352 19.202H37.4V47.25H.352V19.202Z"/>
  </mask>
  <g mask="url(#c)">
    <path fill="#007965" d="M.57 29.085c.316 6.69 4.802 11.398 9.842 11.398 6.867 0 9.85-5.958 9.85-5.958-4.859-5.314-12.412-3.061-15.85-3.28.457 1.469 1.962 3.444 6.554 4.482 0 0-7.121.345-8.375-5.855-.654-3.242 1.34-7.054 5.568-7.054 4.273 0 9.867 5.887 11.662 8.153.123.154.403.502.812.976 1.399 1.614 2.037 3.719 1.882 5.845-.106 1.447.274 2.89 1.247 3.951 2.988 3.252 10.341 6.316 12.568 4.238 2.226-2.079-.38-9.574-3.448-12.748-1.009-1.038-2.443-1.508-3.909-1.489-2.343.026-4.585-.944-6.116-2.707-.078-.09-.152-.177-.226-.26-2.813-3.285-7.895-8.892-13.55-8.892-5.726 0-8.73 4.554-8.51 9.2Z"/>
  </g>
  <path fill="#007965" d="M65.724 6.904v16.763h6.819c4.814 0 8.752-3.577 8.752-8.394 0-4.77-3.938-8.369-8.775-8.369h-6.796Zm3.487 13.612V10.053h3.31c2.922 0 5.197 2.184 5.197 5.22 0 3.016-2.275 5.243-5.175 5.243H69.21ZM87.275 6.904h-3.487v16.763h3.487V6.904Zm13.59 16.763v-3.151h-6.909V16.31h6.3v-3.13h-6.3v-3.128h5.423V6.904h-8.91v16.763h10.396Zm8.952 0V10.053h4.411V6.904H102.19v3.149h4.14v13.614h3.487Z"/>
  <path fill="#fff" d="M64.99 39.646v-8.211h.992v3.712l3.429-3.712h1.237l-3.055 3.274 3.107 4.937h-1.2l-2.603-4.177-.915.98v3.197h-.992Zm15.889.141c-.561 0-1.054-.125-1.483-.373a2.736 2.736 0 0 1-1.018-1.07c-.242-.455-.36-.993-.36-1.611 0-.61.118-1.141.36-1.599a2.586 2.586 0 0 1 1.005-1.057c.439-.258.945-.386 1.522-.386.557 0 1.044.128 1.456.386.412.252.725.58.941.993a2.786 2.786 0 0 1 .322 1.598v.297h-4.64c.026.438.129.808.31 1.108a1.831 1.831 0 0 0 1.585.877c.402 0 .74-.09 1.018-.271.274-.187.47-.445.593-.773h.98a2.647 2.647 0 0 1-.903 1.353c-.438.354-1.002.528-1.688.528Zm0-5.271a1.99 1.99 0 0 0-1.264.438c-.36.283-.567.696-.618 1.237h3.66c-.025-.522-.206-.931-.54-1.224-.336-.3-.749-.451-1.238-.451Zm13.171 5.271c-.56 0-1.054-.125-1.482-.373a2.736 2.736 0 0 1-1.019-1.07c-.241-.455-.36-.993-.36-1.611 0-.61.119-1.141.36-1.599a2.586 2.586 0 0 1 1.006-1.057c.438-.258.944-.386 1.52-.386.558 0 1.045.128 1.457.386.413.252.725.58.941.993a2.786 2.786 0 0 1 .323 1.598v.297h-4.64c.025.438.128.808.309 1.108a1.831 1.831 0 0 0 1.585.877c.403 0 .741-.09 1.018-.271.274-.187.47-.445.593-.773h.98a2.647 2.647 0 0 1-.902 1.353c-.439.354-1.002.528-1.689.528Zm0-5.271c-.474 0-.896.148-1.263.438-.361.283-.567.696-.619 1.237h3.66c-.025-.522-.205-.931-.54-1.224-.336-.3-.748-.451-1.238-.451Zm10.555 7.708v-8.392h.89l.09.954c.187-.283.454-.535.799-.76.351-.223.799-.335 1.341-.335.573 0 1.076.135 1.508.4a2.78 2.78 0 0 1 1.005 1.095c.238.457.361.976.361 1.56a3.39 3.39 0 0 1-.361 1.572c-.242.458-.58.819-1.018 1.083-.432.257-.935.386-1.508.386-.484 0-.909-.1-1.276-.296a2.035 2.035 0 0 1-.851-.825v3.558h-.98Zm3.004-3.3a1.9 1.9 0 0 0 1.018-.27c.299-.181.535-.433.709-.761.171-.336.258-.722.258-1.16 0-.439-.087-.819-.258-1.148a1.929 1.929 0 0 0-.709-.76 1.853 1.853 0 0 0-1.018-.284c-.397 0-.745.097-1.045.284a1.92 1.92 0 0 0-.696.76c-.174.33-.257.71-.257 1.148 0 .438.083.825.257 1.16.171.328.403.58.696.76.3.18.648.27 1.045.27ZM67.04 55.732v-3.12l-2.682-5.09h1.121l2.05 4.15 2.05-4.15h1.108l-2.668 5.09v3.12h-.98Zm13.83.142a2.93 2.93 0 0 1-1.47-.374 2.721 2.721 0 0 1-1.044-1.057c-.252-.464-.374-1.005-.374-1.624 0-.619.129-1.154.387-1.611a2.765 2.765 0 0 1 1.044-1.057c.444-.248.94-.374 1.482-.374.548 0 1.044.126 1.482.374.439.251.78.602 1.032 1.057.257.457.386.992.386 1.61 0 .62-.129 1.16-.386 1.625A2.71 2.71 0 0 1 82.35 55.5a2.962 2.962 0 0 1-1.482.374Zm0-.851a1.84 1.84 0 0 0 1.65-.98c.18-.325.27-.734.27-1.224 0-.48-.09-.883-.27-1.212a1.763 1.763 0 0 0-.697-.747 1.903 1.903 0 0 0-1.869 0 1.847 1.847 0 0 0-.696.747c-.18.329-.27.732-.27 1.212 0 .49.09.899.27 1.224a1.793 1.793 0 0 0 1.611.98Zm12.925.851c-.696 0-1.247-.207-1.65-.619-.406-.419-.606-1.063-.606-1.934V49.92h.98v3.287c0 1.211.496 1.817 1.495 1.817.506 0 .922-.18 1.25-.541.335-.361.503-.877.503-1.547V49.92h.993v5.813h-.89l-.077-1.044a2.03 2.03 0 0 1-.812.876c-.355.207-.748.31-1.186.31Zm11.08-.142v-5.813h.889l.078 1.108c.18-.386.454-.69.825-.915.367-.222.824-.335 1.366-.335v1.031h-.271a2.49 2.49 0 0 0-.954.18 1.44 1.44 0 0 0-.696.62c-.174.283-.258.68-.258 1.185v2.939h-.979Zm12.986.142c-.696 0-1.276-.174-1.74-.529-.464-.351-.735-.828-.812-1.43h1.005c.068.302.232.563.49.786.264.225.622.335 1.07.335.412 0 .712-.084.902-.258a.834.834 0 0 0 .296-.631c0-.352-.129-.584-.386-.697-.252-.119-.606-.225-1.07-.322a5.316 5.316 0 0 1-.941-.27 2.194 2.194 0 0 1-.786-.503c-.207-.213-.31-.496-.31-.85 0-.507.187-.92.567-1.238.377-.326.893-.49 1.547-.49.619 0 1.125.154 1.521.464.393.31.622.748.683 1.315h-.966c-.046-.3-.174-.532-.387-.696-.216-.171-.503-.258-.864-.258-.354 0-.625.077-.812.232a.7.7 0 0 0-.283.58c0 .232.119.419.361.554.248.129.583.242 1.005.335a7.23 7.23 0 0 1 1.018.297c.326.112.593.28.799.502.213.226.323.548.323.967.006.525-.19.96-.593 1.302-.406.335-.951.503-1.637.503Zm12.749 0c-.561 0-1.054-.126-1.482-.374a2.735 2.735 0 0 1-1.019-1.07c-.241-.454-.361-.992-.361-1.611 0-.61.12-1.14.361-1.599a2.59 2.59 0 0 1 1.006-1.056c.438-.258.944-.387 1.521-.387.557 0 1.044.129 1.456.387.413.25.725.58.941.992a2.777 2.777 0 0 1 .322 1.598v.297h-4.64c.026.438.129.809.309 1.108a1.833 1.833 0 0 0 1.586.877c.403 0 .741-.09 1.018-.27.274-.188.471-.445.593-.774h.98a2.649 2.649 0 0 1-.903 1.353c-.438.355-1.002.529-1.688.529Zm0-5.272c-.474 0-.896.148-1.263.438-.361.284-.567.696-.619 1.238h3.661c-.026-.523-.207-.932-.542-1.225-.335-.3-.747-.451-1.237-.451Zm10.555 5.13v-8.443h.98v8.443h-.98Zm9.412 0v-4.988h-.877v-.825h.877V48.9c0-.557.142-.966.425-1.224.284-.258.696-.387 1.238-.387h.58v.838h-.426c-.303 0-.515.064-.644.193-.123.123-.181.323-.181.606v.993H153v.825h-1.431v4.988h-.992Z"/>
</svg>
