<svg xmlns="http://www.w3.org/2000/svg" width="153" height="65" fill="none" viewBox="0 0 153 65">
  <mask id="a" width="57" height="65" x="0" y="0" maskUnits="userSpaceOnUse" style="mask-type:luminance">
    <path fill="#fff" d="M.164 0h56.302v64.345H.164V0Z"/>
  </mask>
  <g mask="url(#a)">
    <path fill="#007965" d="M42.388 4.963c-6.88-.136-12.242-3.71-14.076-4.96-1.83 1.25-7.192 4.824-14.072 4.96C6.69 5.14 1.953 3.309.164 2.1v20.02h3.04V6.66A34.863 34.863 0 0 0 13.256 8h1.07c4.692-.135 9.474-1.653 13.985-4.424 4.515 2.771 9.293 4.289 13.985 4.38h1.073c3.397.044 6.79-.404 10.054-1.341v15.46h3.036V2.102C54.675 3.31 49.938 5.14 42.388 4.963Zm3.573 42.893c-4.737 6.526-10.991 11.217-17.649 13.36-6.703-2.098-12.912-6.834-17.646-13.315a39.982 39.982 0 0 1-3.441-5.63H3.828c4.737 10.145 13.718 19.035 24.484 22.074 8.043-2.278 15.058-7.817 20.108-14.7a44.307 44.307 0 0 0 4.376-7.419h-3.348a45.388 45.388 0 0 1-3.487 5.63Z"/>
  </g>
  <mask id="b" width="41" height="31" x="16" y="9" maskUnits="userSpaceOnUse" style="mask-type:luminance">
    <path fill="#fff" d="M16.425 9.706h40.421v30.12H16.425V9.706Z"/>
  </mask>
  <g mask="url(#b)">
    <path fill="#00AF91" d="M46.86 18.977c-6.87 0-9.854 5.955-9.854 5.955 4.863 5.314 12.413 3.061 15.855 3.28-.458-1.47-1.963-3.445-6.555-4.482 0 0 7.118-.345 8.372 5.855.657 3.242-1.34 7.054-5.568 7.054-4.27 0-9.867-5.888-11.662-8.153a27.007 27.007 0 0 0-.903-1.08c-1.33-1.527-2.026-3.48-2.056-5.503a5.454 5.454 0 0 0-1.495-3.68l-8.023-8.507L23.594 11l7.721 8.185-.908.848-7.721-8.185-1.29 1.205 7.718 8.185-.908.847-7.718-8.184-1.292 1.205 7.718 8.185-.906.847-7.72-8.185-1.377 1.286 8.024 8.507a5.522 5.522 0 0 0 3.506 1.711c2.307.216 4.466 1.228 5.98 2.974.075.084.15.168.217.249 2.816 3.283 7.895 8.89 13.553 8.89 5.726 0 8.73-4.553 8.51-9.2-.315-6.69-4.8-11.394-9.84-11.394Z"/>
  </g>
  <mask id="c" width="38" height="29" x="0" y="19" maskUnits="userSpaceOnUse" style="mask-type:luminance">
    <path fill="#fff" d="M0 19.202h37.048V47.25H0V19.202Z"/>
  </mask>
  <g mask="url(#c)">
    <path fill="#007965" d="M.22 29.085c.315 6.69 4.8 11.398 9.84 11.398 6.867 0 9.851-5.958 9.851-5.958-4.86-5.314-12.413-3.061-15.85-3.28.457 1.469 1.962 3.444 6.554 4.482 0 0-7.122.345-8.375-5.855-.655-3.242 1.34-7.054 5.568-7.054 4.273 0 9.867 5.887 11.662 8.153.122.154.403.502.812.976 1.398 1.614 2.036 3.719 1.882 5.845-.107 1.447.274 2.89 1.247 3.951 2.987 3.252 10.34 6.316 12.567 4.238 2.227-2.079-.38-9.574-3.448-12.748-1.008-1.038-2.442-1.508-3.909-1.489-2.342.026-4.585-.944-6.116-2.707-.077-.09-.151-.177-.225-.26-2.814-3.285-7.895-8.892-13.55-8.892-5.727 0-8.73 4.554-8.51 9.2Z"/>
  </g>
  <path fill="#007965" d="M65.373 6.904v16.763h6.818c4.815 0 8.752-3.577 8.752-8.394 0-4.77-3.937-8.369-8.774-8.369h-6.796Zm3.486 13.612V10.053h3.31c2.922 0 5.198 2.184 5.198 5.22 0 3.016-2.276 5.243-5.176 5.243H68.86ZM86.923 6.904h-3.486v16.763h3.486V6.904Zm13.59 16.763v-3.151h-6.908V16.31h6.3v-3.13h-6.3v-3.128h5.423V6.904h-8.91v16.763h10.395Zm8.953 0V10.053h4.411V6.904h-12.039v3.149h4.141v13.614h3.487Z"/>
  <path fill="#000" d="M64.638 39.646v-8.211h.992v3.712l3.43-3.712h1.236l-3.054 3.274 3.106 4.937h-1.199l-2.603-4.177-.916.98v3.197h-.992Zm15.889.141c-.56 0-1.054-.125-1.482-.373a2.736 2.736 0 0 1-1.019-1.07c-.241-.455-.36-.993-.36-1.611 0-.61.119-1.141.36-1.599a2.586 2.586 0 0 1 1.006-1.057c.438-.258.944-.386 1.52-.386.558 0 1.045.128 1.457.386.413.252.725.58.941.993a2.786 2.786 0 0 1 .323 1.598v.297h-4.64c.025.438.128.808.309 1.108a1.831 1.831 0 0 0 1.585.877c.403 0 .741-.09 1.018-.271.274-.187.47-.445.593-.773h.98a2.646 2.646 0 0 1-.902 1.353c-.439.354-1.002.528-1.689.528Zm0-5.271c-.474 0-.896.148-1.263.438-.361.283-.567.696-.619 1.237h3.66c-.025-.522-.205-.931-.54-1.224-.336-.3-.748-.451-1.238-.451Zm13.172 5.271c-.561 0-1.054-.125-1.483-.373a2.736 2.736 0 0 1-1.018-1.07c-.242-.455-.36-.993-.36-1.611 0-.61.118-1.141.36-1.599a2.585 2.585 0 0 1 1.005-1.057c.439-.258.944-.386 1.521-.386.558 0 1.044.128 1.457.386.412.252.725.58.94.993a2.785 2.785 0 0 1 .323 1.598v.297h-4.64c.026.438.129.808.31 1.108a1.831 1.831 0 0 0 1.585.877c.402 0 .74-.09 1.018-.271.274-.187.47-.445.593-.773h.98a2.647 2.647 0 0 1-.903 1.353c-.438.354-1.002.528-1.688.528Zm0-5.271a1.99 1.99 0 0 0-1.264.438c-.36.283-.567.696-.618 1.237h3.66c-.025-.522-.206-.931-.541-1.224-.335-.3-.748-.451-1.237-.451Zm10.555 7.708v-8.392h.889l.09.954c.187-.283.455-.535.799-.76.352-.223.8-.335 1.341-.335.574 0 1.076.135 1.508.4.429.267.764.63 1.005 1.095.239.457.361.976.361 1.56 0 .586-.122 1.108-.361 1.572a2.72 2.72 0 0 1-1.018 1.083c-.432.257-.934.386-1.508.386-.483 0-.909-.1-1.276-.296a2.04 2.04 0 0 1-.851-.825v3.558h-.979Zm3.003-3.3c.387 0 .725-.09 1.018-.27a1.9 1.9 0 0 0 .709-.761c.171-.336.258-.722.258-1.16 0-.439-.087-.819-.258-1.148a1.922 1.922 0 0 0-.709-.76 1.85 1.85 0 0 0-1.018-.284c-.396 0-.744.097-1.044.284a1.92 1.92 0 0 0-.696.76c-.174.33-.258.71-.258 1.148 0 .438.084.825.258 1.16.171.328.403.58.696.76.3.18.648.27 1.044.27ZM66.688 55.732v-3.12l-2.682-5.09h1.122l2.05 4.15 2.049-4.15h1.108l-2.668 5.09v3.12h-.98Zm13.83.142a2.93 2.93 0 0 1-1.47-.374 2.721 2.721 0 0 1-1.044-1.057c-.251-.464-.374-1.005-.374-1.624 0-.619.13-1.154.387-1.611a2.764 2.764 0 0 1 1.044-1.057 3 3 0 0 1 1.482-.374c.548 0 1.045.126 1.483.374.438.251.78.602 1.031 1.057.258.457.387.992.387 1.61 0 .62-.13 1.16-.387 1.625A2.71 2.71 0 0 1 82 55.5a2.962 2.962 0 0 1-1.482.374Zm0-.851a1.847 1.847 0 0 0 1.65-.98c.18-.325.27-.734.27-1.224 0-.48-.09-.883-.27-1.212a1.763 1.763 0 0 0-.697-.747 1.903 1.903 0 0 0-1.868 0 1.847 1.847 0 0 0-.697.747c-.18.329-.27.732-.27 1.212 0 .49.09.899.27 1.224.181.329.413.574.697.735.283.164.586.245.915.245Zm12.925.851c-.696 0-1.247-.207-1.65-.619-.406-.419-.605-1.063-.605-1.934V49.92h.98v3.287c0 1.211.495 1.817 1.494 1.817.506 0 .922-.18 1.25-.541.336-.361.503-.877.503-1.547V49.92h.993v5.813h-.89l-.077-1.044a2.03 2.03 0 0 1-.812.876 2.31 2.31 0 0 1-1.186.31Zm11.08-.142v-5.813h.89l.077 1.108c.18-.386.454-.69.825-.915.367-.222.825-.335 1.366-.335v1.031h-.27a2.49 2.49 0 0 0-.954.18 1.43 1.43 0 0 0-.696.62c-.174.283-.258.68-.258 1.185v2.939h-.98Zm12.986.142c-.696 0-1.276-.174-1.74-.529-.464-.351-.735-.828-.812-1.43h1.005c.068.302.232.563.49.786.265.225.622.335 1.07.335.413 0 .712-.084.902-.258a.832.832 0 0 0 .297-.632c0-.35-.129-.583-.387-.696-.251-.119-.606-.225-1.07-.322a5.34 5.34 0 0 1-.941-.27 2.202 2.202 0 0 1-.786-.503c-.206-.213-.309-.496-.309-.85 0-.507.187-.92.567-1.238.377-.326.893-.49 1.547-.49.618 0 1.124.154 1.521.464.393.31.622.748.683 1.315h-.967c-.045-.3-.174-.532-.387-.696-.216-.171-.502-.258-.863-.258-.355 0-.625.077-.812.232a.7.7 0 0 0-.284.58c0 .232.119.419.361.554.248.129.583.242 1.005.335.361.078.7.178 1.019.297.325.112.593.28.799.502.213.226.322.548.322.967.007.525-.19.96-.593 1.302-.406.335-.95.503-1.637.503Zm12.749 0c-.56 0-1.053-.126-1.482-.374a2.733 2.733 0 0 1-1.018-1.07c-.242-.454-.361-.992-.361-1.611 0-.61.119-1.14.361-1.599a2.58 2.58 0 0 1 1.005-1.056c.438-.258.944-.387 1.521-.387.558 0 1.044.129 1.457.386.412.252.725.58.941.993.222.413.335.86.335 1.34 0 .088-.007.175-.013.258v.297h-4.64c.025.438.128.809.309 1.108a1.832 1.832 0 0 0 1.585.877c.403 0 .742-.09 1.019-.27a1.58 1.58 0 0 0 .593-.774h.979a2.647 2.647 0 0 1-.902 1.353c-.438.355-1.002.529-1.689.529Zm0-5.272a1.99 1.99 0 0 0-1.263.438c-.361.284-.567.696-.619 1.237h3.661c-.026-.522-.206-.93-.541-1.224-.335-.3-.748-.451-1.238-.451Zm10.555 5.13v-8.443h.98v8.443h-.98Zm9.412 0v-4.988h-.876v-.825h.876V48.9c0-.557.142-.966.426-1.224.283-.258.696-.387 1.237-.387h.58v.838h-.425c-.303 0-.516.064-.645.193-.122.123-.18.323-.18.606v.993h1.43v.825h-1.43v4.988h-.993Z"/>
</svg>
